# xmcd CD database file
#
# Track frame offsets:
#	150
#	54804
#	91514
#	137996
#
# Disc length: 2830 seconds
#
# Revision: 0
# Processed by: cddbd v1.5.1PL0 Copyright (c) Steve Scherf et al.
# Submitted via: CDex 1.51
#
DISCID=260b0c04
DTITLE=Steve Hubback and Paal Nielsen-Love - Steve Hubback and Paal Nielsen-Love
DYEAR=2003
DGENRE=Jazz
TTITLE0=Improvisation 1
TTITLE1=Improvisation 2
TTITLE2=Improvisation 3
TTITLE3=Improvisation 4
EXTD=YEAR: 2003
EXTT0=
EXTT1=
EXTT2=
EXTT3=
PLAYORDER=
